<?xml version="1.0" encoding="utf-8"?>
<!-- Generator: Adobe Illustrator 16.0.0, SVG Export Plug-In . SVG Version: 6.00 Build 0)  -->
<!DOCTYPE svg PUBLIC "-//W3C//DTD SVG 1.1//EN" "http://www.w3.org/Graphics/SVG/1.1/DTD/svg11.dtd">
<svg version="1.1"
	 id="svg10" xmlns:dc="http://purl.org/dc/elements/1.1/" xmlns:cc="http://creativecommons.org/ns#" xmlns:rdf="http://www.w3.org/1999/02/22-rdf-syntax-ns#" xmlns:svg="http://www.w3.org/2000/svg"
	 xmlns="http://www.w3.org/2000/svg" xmlns:xlink="http://www.w3.org/1999/xlink" x="0px" y="0px" width="489.6px" height="394.5px"
	 viewBox="0 0 489.6 394.5" enable-background="new 0 0 489.6 394.5" xml:space="preserve">
<g id="g8">
	<g id="g6" transform="translate(0.000000,511.000000) scale(0.100000,-0.100000)">
		<path id="path4" d="M1887.48,4379.833c-300.586-387.017-546.714-705.742-546.714-708.281
			c0-6.245,1092.764-1412.754,1097.139-1412.754c1.875,0,233.56,296.211,515.376,658.799
			c281.172,362.597,528.535,680.088,548.574,706.386l36.953,47.598l-547.305,703.872
			c-301.191,386.987-549.829,704.507-552.329,705.747C2436.665,5081.835,2188.696,4766.215,1887.48,4379.833z M2816.162,4174.433
			l284.951-366.338l-379.502-1.87c-208.545-0.635-380.732,0-382.607,1.87c-3.14,2.505,160.303,747.07,166.582,757.095
			c1.875,3.14,8.145-1.24,14.395-9.39C2525.605,4547.651,2658.974,4376.059,2816.162,4174.433z M2123.55,4062.949l-57.598-258.022
			h-145.903c-140.283,0-146.533,0.635-138.384,11.26c35.078,48.848,395.771,508.496,397.041,506.621
			C2179.912,4321.601,2155.493,4204.472,2123.55,4062.949z M2538.125,3532.539c0-9.395-160.327-735.81-166.577-753.349
			c-1.87-6.885-597.427,750.205-597.427,759.599c0,1.875,172.226,3.135,382.002,3.135
			C2494.922,3541.923,2538.125,3540.683,2538.125,3532.539z M3101.719,3538.818c0-1.875-382.637-497.842-398.281-516.006
			c-9.385-10.664-1.23,32.568,49.482,261.123l57.598,257.988h145.303C3035.967,3541.923,3101.719,3540.683,3101.719,3538.818z"/>
	</g>
</g>
<g>
	<path d="M55.26,342.266c0,3.406-0.532,6.422-1.594,9.047c-1.063,2.625-2.609,4.836-4.641,6.633
		c-2.032,1.797-4.523,3.164-7.477,4.102s-6.43,1.406-10.43,1.406h-5.063v19.359c0,0.313-0.102,0.594-0.305,0.844
		c-0.204,0.25-0.539,0.453-1.008,0.609s-1.094,0.281-1.875,0.375c-0.781,0.094-1.781,0.141-3,0.141c-1.188,0-2.18-0.047-2.977-0.141
		s-1.43-0.219-1.898-0.375s-0.797-0.359-0.984-0.609s-0.281-0.531-0.281-0.844V328.25c0-1.469,0.382-2.57,1.148-3.305
		c0.766-0.734,1.773-1.102,3.023-1.102h14.297c1.437,0,2.805,0.055,4.102,0.164c1.296,0.109,2.852,0.344,4.664,0.703
		c1.812,0.359,3.648,1.023,5.508,1.992c1.859,0.969,3.445,2.195,4.758,3.68s2.313,3.219,3,5.203
		C54.916,337.57,55.26,339.797,55.26,342.266z M42.369,343.156c0-2.125-0.375-3.875-1.125-5.25s-1.672-2.391-2.766-3.047
		c-1.094-0.656-2.243-1.07-3.445-1.242c-1.203-0.172-2.445-0.258-3.727-0.258h-5.25v20.578h5.531c1.969,0,3.617-0.266,4.945-0.797
		c1.328-0.531,2.414-1.273,3.258-2.227s1.484-2.094,1.922-3.422C42.15,346.164,42.369,344.719,42.369,343.156z"/>
	<path d="M112.166,382.813c0,0.313-0.102,0.594-0.305,0.844c-0.204,0.25-0.539,0.453-1.008,0.609s-1.094,0.281-1.875,0.375
		c-0.781,0.094-1.766,0.141-2.953,0.141c-1.219,0-2.227-0.047-3.023-0.141s-1.422-0.219-1.875-0.375
		c-0.453-0.156-0.781-0.359-0.984-0.609c-0.204-0.25-0.305-0.531-0.305-0.844v-24.516H77.15v24.516c0,0.313-0.094,0.594-0.281,0.844
		s-0.516,0.453-0.984,0.609s-1.094,0.281-1.875,0.375c-0.781,0.094-1.781,0.141-3,0.141c-1.188,0-2.18-0.047-2.977-0.141
		s-1.43-0.219-1.898-0.375s-0.805-0.359-1.008-0.609c-0.204-0.25-0.305-0.531-0.305-0.844v-57.281c0-0.313,0.101-0.594,0.305-0.844
		c0.203-0.25,0.539-0.453,1.008-0.609s1.102-0.281,1.898-0.375s1.789-0.141,2.977-0.141c1.219,0,2.219,0.047,3,0.141
		c0.781,0.094,1.406,0.219,1.875,0.375s0.797,0.359,0.984,0.609s0.281,0.531,0.281,0.844v22.266h22.688v-22.266
		c0-0.313,0.101-0.594,0.305-0.844c0.203-0.25,0.531-0.453,0.984-0.609c0.453-0.156,1.078-0.281,1.875-0.375
		s1.805-0.141,3.023-0.141c1.188,0,2.172,0.047,2.953,0.141c0.781,0.094,1.406,0.219,1.875,0.375s0.804,0.359,1.008,0.609
		c0.203,0.25,0.305,0.531,0.305,0.844V382.813z"/>
	<path d="M175.072,379.906c0.375,1.125,0.609,2.016,0.703,2.672s-0.031,1.148-0.375,1.477c-0.344,0.328-0.954,0.531-1.828,0.609
		c-0.875,0.078-2.079,0.117-3.609,0.117c-1.594,0-2.836-0.023-3.727-0.07s-1.57-0.141-2.039-0.281s-0.797-0.336-0.984-0.586
		s-0.344-0.578-0.469-0.984l-4.078-12.188h-22.781l-3.844,11.859c-0.125,0.438-0.289,0.805-0.492,1.102
		c-0.204,0.297-0.532,0.531-0.984,0.703c-0.453,0.172-1.094,0.289-1.922,0.352c-0.828,0.063-1.915,0.094-3.258,0.094
		c-1.438,0-2.563-0.047-3.375-0.141c-0.813-0.094-1.375-0.32-1.688-0.68c-0.313-0.359-0.422-0.867-0.328-1.523
		s0.328-1.531,0.703-2.625L139.4,326c0.188-0.531,0.406-0.961,0.656-1.289c0.25-0.328,0.648-0.578,1.195-0.75
		c0.546-0.172,1.305-0.281,2.273-0.328c0.968-0.047,2.25-0.07,3.844-0.07c1.844,0,3.312,0.023,4.406,0.07
		c1.094,0.047,1.945,0.156,2.555,0.328s1.047,0.43,1.313,0.773c0.265,0.344,0.492,0.813,0.68,1.406L175.072,379.906z
		 M147.229,335.422h-0.047l-8.578,25.781h17.203L147.229,335.422z"/>
	<path d="M219.51,366.313c0,3.188-0.594,5.984-1.781,8.391s-2.797,4.414-4.828,6.023s-4.406,2.82-7.125,3.633
		s-5.625,1.219-8.719,1.219c-2.094,0-4.039-0.172-5.836-0.516s-3.383-0.758-4.758-1.242s-2.523-0.992-3.445-1.523
		s-1.586-1-1.992-1.406s-0.696-0.992-0.867-1.758c-0.172-0.766-0.258-1.867-0.258-3.305c0-0.969,0.031-1.781,0.094-2.438
		c0.063-0.656,0.164-1.188,0.305-1.594s0.328-0.695,0.563-0.867s0.508-0.258,0.82-0.258c0.438,0,1.055,0.258,1.852,0.773
		s1.82,1.086,3.07,1.711s2.742,1.195,4.477,1.711s3.742,0.773,6.023,0.773c1.5,0,2.844-0.18,4.031-0.539s2.195-0.867,3.023-1.523
		s1.461-1.469,1.898-2.438s0.656-2.047,0.656-3.234c0-1.375-0.375-2.555-1.125-3.539s-1.727-1.859-2.93-2.625
		s-2.57-1.484-4.102-2.156s-3.109-1.383-4.734-2.133s-3.203-1.602-4.734-2.555s-2.898-2.094-4.102-3.422s-2.18-2.898-2.93-4.711
		s-1.125-3.984-1.125-6.516c0-2.906,0.539-5.461,1.617-7.664s2.531-4.031,4.359-5.484s3.984-2.539,6.469-3.258
		s5.117-1.078,7.898-1.078c1.438,0,2.875,0.109,4.313,0.328s2.781,0.516,4.031,0.891s2.359,0.797,3.328,1.266
		s1.609,0.859,1.922,1.172s0.523,0.578,0.633,0.797s0.203,0.508,0.281,0.867s0.133,0.813,0.164,1.359s0.047,1.227,0.047,2.039
		c0,0.906-0.023,1.672-0.07,2.297s-0.125,1.141-0.234,1.547s-0.266,0.703-0.469,0.891s-0.477,0.281-0.82,0.281
		s-0.891-0.219-1.641-0.656s-1.672-0.914-2.766-1.43s-2.359-0.984-3.797-1.406s-3.016-0.633-4.734-0.633
		c-1.344,0-2.516,0.164-3.516,0.492s-1.836,0.781-2.508,1.359s-1.172,1.273-1.5,2.086s-0.492,1.672-0.492,2.578
		c0,1.344,0.367,2.508,1.102,3.492s1.719,1.859,2.953,2.625s2.633,1.484,4.195,2.156s3.156,1.383,4.781,2.133
		s3.219,1.602,4.781,2.555s2.953,2.094,4.172,3.422s2.203,2.891,2.953,4.688S219.51,363.875,219.51,366.313z"/>
	<path d="M299.619,382.813c0,0.313-0.086,0.594-0.258,0.844s-0.484,0.453-0.938,0.609s-1.055,0.281-1.805,0.375
		s-1.703,0.141-2.859,0.141c-1.125,0-2.063-0.047-2.813-0.141s-1.344-0.219-1.781-0.375s-0.75-0.359-0.938-0.609
		s-0.281-0.531-0.281-0.844v-49.359h-0.094l-17.578,49.313c-0.125,0.406-0.328,0.742-0.609,1.008s-0.664,0.477-1.148,0.633
		s-1.102,0.258-1.852,0.305s-1.656,0.07-2.719,0.07s-1.969-0.039-2.719-0.117s-1.367-0.203-1.852-0.375s-0.867-0.383-1.148-0.633
		s-0.469-0.547-0.563-0.891l-16.969-49.313h-0.094v49.359c0,0.313-0.086,0.594-0.258,0.844s-0.492,0.453-0.961,0.609
		s-1.07,0.281-1.805,0.375s-1.68,0.141-2.836,0.141c-1.125,0-2.063-0.047-2.813-0.141s-1.352-0.219-1.805-0.375
		s-0.766-0.359-0.938-0.609s-0.258-0.531-0.258-0.844v-54.047c0-1.594,0.422-2.813,1.266-3.656s1.969-1.266,3.375-1.266h8.063
		c1.438,0,2.672,0.117,3.703,0.352s1.922,0.625,2.672,1.172s1.375,1.266,1.875,2.156s0.938,1.992,1.313,3.305l13.125,36.141h0.188
		l13.594-36.047c0.406-1.313,0.852-2.422,1.336-3.328s1.047-1.641,1.688-2.203s1.398-0.961,2.273-1.195s1.891-0.352,3.047-0.352
		h8.297c0.844,0,1.57,0.109,2.18,0.328s1.109,0.539,1.5,0.961s0.688,0.938,0.891,1.547s0.305,1.305,0.305,2.086V382.813z"/>
	<path d="M362.525,379.906c0.375,1.125,0.609,2.016,0.703,2.672s-0.031,1.148-0.375,1.477s-0.953,0.531-1.828,0.609
		s-2.078,0.117-3.609,0.117c-1.594,0-2.836-0.023-3.727-0.07s-1.57-0.141-2.039-0.281s-0.797-0.336-0.984-0.586
		s-0.344-0.578-0.469-0.984l-4.078-12.188h-22.781l-3.844,11.859c-0.125,0.438-0.289,0.805-0.492,1.102s-0.531,0.531-0.984,0.703
		s-1.094,0.289-1.922,0.352s-1.914,0.094-3.258,0.094c-1.438,0-2.563-0.047-3.375-0.141s-1.375-0.32-1.688-0.68
		s-0.422-0.867-0.328-1.523s0.328-1.531,0.703-2.625L326.854,326c0.188-0.531,0.406-0.961,0.656-1.289s0.648-0.578,1.195-0.75
		s1.305-0.281,2.273-0.328s2.25-0.07,3.844-0.07c1.844,0,3.313,0.023,4.406,0.07s1.945,0.156,2.555,0.328s1.047,0.43,1.313,0.773
		s0.492,0.813,0.68,1.406L362.525,379.906z M334.682,335.422h-0.047l-8.578,25.781h17.203L334.682,335.422z"/>
	<path d="M403.869,328.906c0,0.906-0.039,1.68-0.117,2.32s-0.195,1.156-0.352,1.547s-0.352,0.68-0.586,0.867
		s-0.492,0.281-0.773,0.281h-15.188v48.891c0,0.313-0.102,0.594-0.305,0.844s-0.539,0.453-1.008,0.609s-1.102,0.281-1.898,0.375
		s-1.789,0.141-2.977,0.141s-2.18-0.047-2.977-0.141s-1.43-0.219-1.898-0.375s-0.805-0.359-1.008-0.609s-0.305-0.531-0.305-0.844
		v-48.891h-15.188c-0.313,0-0.578-0.094-0.797-0.281s-0.406-0.477-0.563-0.867s-0.273-0.906-0.352-1.547s-0.117-1.414-0.117-2.32
		c0-0.938,0.039-1.734,0.117-2.391s0.195-1.18,0.352-1.57s0.344-0.672,0.563-0.844s0.484-0.258,0.797-0.258h42.75
		c0.281,0,0.539,0.086,0.773,0.258s0.43,0.453,0.586,0.844s0.273,0.914,0.352,1.57S403.869,327.969,403.869,328.906z"/>
	<path d="M423.416,382.813c0,0.313-0.102,0.594-0.305,0.844s-0.539,0.453-1.008,0.609s-1.094,0.281-1.875,0.375
		s-1.781,0.141-3,0.141c-1.188,0-2.18-0.047-2.977-0.141s-1.43-0.219-1.898-0.375s-0.805-0.359-1.008-0.609
		s-0.305-0.531-0.305-0.844v-57.281c0-0.313,0.102-0.594,0.305-0.844s0.547-0.453,1.031-0.609s1.117-0.281,1.898-0.375
		s1.766-0.141,2.953-0.141c1.219,0,2.219,0.047,3,0.141s1.406,0.219,1.875,0.375s0.805,0.359,1.008,0.609s0.305,0.531,0.305,0.844
		V382.813z"/>
	<path d="M478.588,375.313c0,0.781-0.023,1.445-0.07,1.992s-0.117,1.016-0.211,1.406s-0.219,0.727-0.375,1.008
		s-0.406,0.602-0.75,0.961s-1.008,0.82-1.992,1.383s-2.188,1.102-3.609,1.617s-3.047,0.945-4.875,1.289s-3.805,0.516-5.93,0.516
		c-4.156,0-7.906-0.641-11.25-1.922s-6.188-3.195-8.531-5.742s-4.141-5.727-5.391-9.539s-1.875-8.25-1.875-13.313
		c0-5.156,0.688-9.734,2.063-13.734s3.297-7.359,5.766-10.078s5.43-4.781,8.883-6.188s7.258-2.109,11.414-2.109
		c1.688,0,3.313,0.141,4.875,0.422s3.008,0.648,4.336,1.102s2.523,0.977,3.586,1.57s1.805,1.102,2.227,1.523
		s0.711,0.773,0.867,1.055s0.281,0.641,0.375,1.078s0.164,0.953,0.211,1.547s0.07,1.328,0.07,2.203c0,0.938-0.031,1.734-0.094,2.391
		s-0.172,1.188-0.328,1.594s-0.344,0.703-0.563,0.891s-0.469,0.281-0.75,0.281c-0.469,0-1.063-0.273-1.781-0.82
		s-1.648-1.156-2.789-1.828s-2.5-1.281-4.078-1.828s-3.461-0.82-5.648-0.82c-2.406,0-4.555,0.492-6.445,1.477
		s-3.5,2.391-4.828,4.219s-2.336,4.039-3.023,6.633s-1.031,5.516-1.031,8.766c0,3.563,0.367,6.648,1.102,9.258
		s1.781,4.758,3.141,6.445s3,2.945,4.922,3.773s4.086,1.242,6.492,1.242c2.188,0,4.078-0.258,5.672-0.773s2.961-1.086,4.102-1.711
		s2.078-1.188,2.813-1.688s1.305-0.75,1.711-0.75c0.313,0,0.563,0.063,0.75,0.188s0.344,0.375,0.469,0.75s0.219,0.898,0.281,1.57
		S478.588,374.188,478.588,375.313z"/>
</g>
</svg>
